Coordinates
version=1
nRows=23
nColumns=38
inDegrees=no

Units are S.I. units (second, meters, Newtons, ...)
If the header above contains a line with 'inDegrees', this indicates whether rotational values are in degrees (yes) or radians (no).

endheader
time	pelvis_tilt	pelvis_list	pelvis_rotation	pelvis_tx	pelvis_ty	pelvis_tz	hip_flexion_r	hip_adduction_r	hip_rotation_r	knee_angle_r	ankle_angle_r	subtalar_angle_r	mtp_angle_r	hip_flexion_l	hip_adduction_l	hip_rotation_l	knee_angle_l	ankle_angle_l	subtalar_angle_l	mtp_angle_l	lumbar_extension	lumbar_bending	lumbar_rotation	arm_flex_r	arm_add_r	arm_rot_r	elbow_flex_r	pro_sup_r	wrist_flex_r	wrist_dev_r	arm_flex_l	arm_add_l	arm_rot_l	elbow_flex_l	pro_sup_l	wrist_flex_l	wrist_dev_l
0.72	-0.244369	1.40676	-1.19495	0.368301	0.798243	0.935446	-0.337264	0.130561	-0.0949114	0.281825	-0.109233	0	0	0.366973	-0.0757326	-0.100287	0.372025	-0.221638	0	0	-0.420864	0.103806	0.0325242	-0.221132	-0.485468	0.432521	0.840824	0.938033	0	0	-0.196506	-0.285988	0.144324	0.713316	1.29818	0	0
0.73	-0.26458	1.41141	-1.17282	0.370216	0.789106	0.933582	-0.341217	0.130919	-0.0992468	0.285012	-0.106654	0	0	0.355385	-0.0699772	-0.0918967	0.304835	-0.219756	0	0	-0.41354	0.107909	0.0349332	-0.229836	-0.483192	0.417393	0.841588	0.947549	0	0	-0.191632	-0.291517	0.170529	0.710851	1.27763	0	0
0.74	-0.285338	1.41513	-1.15029	0.372138	0.77992	0.931888	-0.34521	0.131395	-0.103811	0.289997	-0.103591	0	0	0.342719	-0.0643419	-0.0853339	0.242138	-0.224141	0	0	-0.408401	0.112067	0.030412	-0.227538	-0.486308	0.424493	0.840658	0.941464	0	0	-0.194622	-0.287261	0.161673	0.71012	1.28358	0	0
0.75	-0.312674	1.41607	-1.12423	0.373283	0.770413	0.930493	-0.352176	0.134539	-0.100802	0.29314	-0.102637	0	0	0.318554	-0.0722514	-0.0747746	0.151221	-0.26047	0	0	-0.4057	0.116094	0.0290132	-0.22399	-0.48816	0.433286	0.838202	0.934946	0	0	-0.198325	-0.28337	0.150576	0.709772	1.29153	0	0
0.76	-0.325343	1.42027	-1.11059	0.375627	0.761111	0.928943	-0.354009	0.131793	-0.105032	0.303354	-0.100523	0	0	0.319635	-0.0584442	-0.0891604	0.151034	-0.238174	0	0	-0.400586	0.118825	0.0252444	-0.222305	-0.491128	0.438905	0.836532	0.931433	0	0	-0.199824	-0.278244	0.143615	0.706566	1.29759	0	0
0.77	-0.341019	1.42312	-1.09704	0.377293	0.751556	0.927533	-0.356135	0.129903	-0.105131	0.315657	-0.0986645	0	0	0.313547	-0.0562478	-0.0998225	0.131952	-0.230999	0	0	-0.396731	0.12058	0.0247047	-0.221086	-0.492816	0.443357	0.834746	0.928952	0	0	-0.201969	-0.274508	0.137215	0.704914	1.30304	0	0
0.78	-0.351194	1.42459	-1.09042	0.37863	0.741751	0.926383	-0.359397	0.127748	-0.104166	0.329386	-0.0973631	0	0	0.303608	-0.0601023	-0.111133	0.109489	-0.242789	0	0	-0.394737	0.121076	0.0251893	-0.219758	-0.493504	0.447294	0.832697	0.926275	0	0	-0.204948	-0.271789	0.130303	0.704379	1.30825	0	0
0.79	-0.346603	1.42869	-1.09656	0.380629	0.732043	0.92519	-0.358126	0.121144	-0.111131	0.350741	-0.0906646	0	0	0.310588	-0.0504072	-0.130336	0.148851	-0.221557	0	0	-0.38965	0.1198	0.0405832	-0.248789	-0.473594	0.376145	0.832762	0.988642	0	0	-0.188563	-0.288837	0.199143	0.697948	1.25951	0	0
0.8	-0.335699	1.43067	-1.11002	0.382324	0.722021	0.924381	-0.361052	0.115436	-0.113002	0.36667	-0.0932816	0	0	0.310054	-0.0465274	-0.14513	0.174807	-0.226005	0	0	-0.388383	0.117566	0.0383033	-0.24558	-0.475817	0.386357	0.830414	0.981648	0	0	-0.192679	-0.285117	0.187853	0.697292	1.26794	0	0
0.81	-0.319321	1.43259	-1.12941	0.38405	0.711743	0.923686	-0.364043	0.108857	-0.114568	0.383574	-0.0950344	0	0	0.309669	-0.0420981	-0.159705	0.204831	-0.222354	0	0	-0.38718	0.11455	0.0361777	-0.243039	-0.477467	0.395485	0.827972	0.976272	0	0	-0.19736	-0.281113	0.175496	0.696931	1.27737	0	0
0.82	-0.292853	1.43429	-1.15878	0.385882	0.701256	0.92324	-0.3683	0.101185	-0.114479	0.398927	-0.0982572	0	0	0.304966	-0.0351367	-0.166597	0.222762	-0.219307	0	0	-0.386493	0.110327	0.0343027	-0.241577	-0.477534	0.401063	0.824605	0.972068	0	0	-0.201663	-0.277657	0.164946	0.696816	1.28567	0	0
0.83	-0.255481	1.43614	-1.19842	0.387827	0.690643	0.923106	-0.372957	0.0924302	-0.112737	0.413492	-0.103097	0	0	0.293395	-0.0235674	-0.157303	0.218175	-0.225421	0	0	-0.386046	0.104651	0.0323425	-0.240402	-0.476315	0.40505	0.819811	0.968698	0	0	-0.205369	-0.275014	0.156039	0.696607	1.29428	0	0
0.84	-0.206008	1.43851	-1.24894	0.389938	0.679959	0.923325	-0.377484	0.0823023	-0.110228	0.427139	-0.111624	0	0	0.270821	-0.00640957	-0.121266	0.181697	-0.256691	0	0	-0.385562	0.0973838	0.0283394	-0.237251	-0.474214	0.411002	0.812601	0.965092	0	0	-0.209635	-0.270419	0.139971	0.695813	1.30917	0	0
0.85	-0.150959	1.44108	-1.30426	0.392131	0.669117	0.923798	-0.382297	0.0717061	-0.105973	0.4383	-0.123066	0	0	0.237257	0.0124368	-0.061259	0.118797	-0.30919	0	0	-0.38451	0.0895949	0.0233173	-0.233963	-0.471529	0.416877	0.804732	0.963409	0	0	-0.214435	-0.264362	0.119075	0.694862	1.32635	0	0
0.86	-0.10825	1.44365	-1.34714	0.394422	0.657958	0.924093	-0.385899	0.0626686	-0.101153	0.45043	-0.135201	0	0	0.22245	0.0233665	-0.0341252	0.102546	-0.339438	0	0	-0.381634	0.0837914	0.0195277	-0.23422	-0.469501	0.419301	0.799596	0.963484	0	0	-0.220101	-0.260299	0.104379	0.696174	1.33841	0	0
0.87	-0.0732677	1.44608	-1.38229	0.396851	0.646527	0.924309	-0.388322	0.0542329	-0.0965145	0.46404	-0.148975	0	0	0.216461	0.0316554	-0.0210726	0.10843	-0.35645	0	0	-0.377577	0.0794767	0.0162986	-0.236535	-0.468167	0.42018	0.795992	0.964369	0	0	-0.22624	-0.256667	0.0922722	0.697387	1.34857	0	0
0.88	-0.0436308	1.44818	-1.41205	0.399297	0.634862	0.92456	-0.389541	0.046371	-0.0919908	0.479644	-0.165633	0	0	0.215334	0.0377219	-0.0143468	0.128638	-0.361873	0	0	-0.373175	0.0760077	0.0132716	-0.239859	-0.467059	0.420485	0.793095	0.965878	0	0	-0.232961	-0.25275	0.0798306	0.698834	1.35945	0	0
0.89	-0.0134267	1.44962	-1.44218	0.401707	0.623112	0.925055	-0.389755	0.0384773	-0.0871481	0.496827	-0.190236	0	0	0.217434	0.0420937	-0.012488	0.161274	-0.348556	0	0	-0.36632	0.0728613	0.0273268	-0.267051	-0.450631	0.36554	0.791419	1.00972	0	0	-0.221623	-0.275852	0.15946	0.696319	1.29831	0	0
0.9	0.0149986	1.45165	-1.47071	0.404199	0.611241	0.925812	-0.38733	0.0302427	-0.0807366	0.51555	-0.222322	0	0	0.21993	0.0465114	-0.0128225	0.193237	-0.342798	0	0	-0.367333	0.0690541	0.00437197	-0.247979	-0.454459	0.39496	0.782711	1.00946	0	0	-0.249616	-0.228438	0.00511761	0.700936	1.4288	0	0
0.91	0.0563222	1.45244	-1.51138	0.406614	0.599429	0.926662	-0.380834	0.0135058	-0.0901967	0.545976	-0.253789	0	0	0.218982	0.0527124	-0.013702	0.219988	-0.341763	0	0	-0.362958	0.0642999	0.0049577	-0.254812	-0.451174	0.389389	0.778972	1.01308	0	0	-0.252663	-0.232645	0.0166085	0.702653	1.42085	0	0
0.92	0.0973196	1.45246	-1.55095	0.409134	0.587748	0.927671	-0.373422	-0.00160463	-0.0953178	0.576659	-0.290827	0	0	0.214591	0.058978	-0.0145273	0.240722	-0.343675	0	0	-0.359449	0.0599869	0.00581242	-0.262285	-0.448427	0.382981	0.776365	1.01665	0	0	-0.25491	-0.238488	0.0327728	0.705432	1.4102	0	0
0.93	0.115852	1.45168	-1.56842	0.411778	0.57638	0.929035	-0.36636	0.000802014	-0.0657879	0.60181	-0.32202	0	0	0.207444	0.0628515	-0.015595	0.256758	-0.344864	0	0	-0.357521	0.0587344	0.0071789	-0.267773	-0.447247	0.378709	0.773526	1.01897	0	0	-0.256024	-0.24213	0.0463572	0.707061	1.39908	0	0
0.94	0.15468	1.45126	-1.60466	0.413992	0.564558	0.929606	-0.355127	-0.0335438	-0.116017	0.63913	-0.376475	0	0	0.199211	0.0686103	-0.0194372	0.270767	-0.337484	0	0	-0.353426	0.0540859	0.00591686	-0.276354	-0.444964	0.373347	0.77466	1.02114	0	0	-0.263005	-0.250709	0.0619532	0.717363	1.38267	0	0
